<svg xmlns="http://www.w3.org/2000/svg" viewBox="0 0 400 400" width="400" height="400">
  <defs>
    <radialGradient id="flesh" cx="50%" cy="40%" r="70%">
      <stop offset="0%" stop-color="#f3ee7b"/>
      <stop offset="70%" stop-color="#c8e07a"/>
      <stop offset="100%" stop-color="#94c25b"/>
    </radialGradient>
    <linearGradient id="skin" x1="0" y1="0" x2="0" y2="1">
      <stop offset="0%" stop-color="#3b6e1c"/>
      <stop offset="100%" stop-color="#234414"/>
    </linearGradient>
    <radialGradient id="pit" cx="50%" cy="50%" r="50%">
      <stop offset="0%" stop-color="#8a4b2b"/>
      <stop offset="100%" stop-color="#5a2e15"/>
    </radialGradient>
    <filter id="ashadow" x="-20%" y="-20%" width="140%" height="140%">
      <feDropShadow dx="0" dy="6" stdDeviation="6" flood-color="#000" flood-opacity="0.18"/>
    </filter>
  </defs>
  <g filter="url(#ashadow)">
    <path d="M200 50 C170 50 165 90 175 120 C145 145 130 195 130 240
             C130 310 165 360 200 360 C235 360 270 310 270 240
             C270 195 255 145 225 120 C235 90 230 50 200 50 Z"
          fill="url(#skin)" stroke="#ffffff" stroke-width="14" stroke-linejoin="round"/>
    <path d="M200 130 C175 130 160 175 160 235 C160 295 180 340 200 340
             C220 340 240 295 240 235 C240 175 225 130 200 130 Z" fill="url(#flesh)"/>
    <circle cx="200" cy="245" r="42" fill="url(#pit)"/>
    <circle cx="190" cy="232" r="8" fill="#a86a3f" opacity="0.6"/>
    <g fill="#2b2b2b">
      <circle cx="180" cy="200" r="6"/>
      <circle cx="220" cy="200" r="6"/>
    </g>
    <path d="M188 215 q12 10 24 0" stroke="#2b2b2b" stroke-width="5" fill="none" stroke-linecap="round"/>
    <circle cx="165" cy="215" r="9" fill="#ff8fa3" opacity="0.7"/>
    <circle cx="235" cy="215" r="9" fill="#ff8fa3" opacity="0.7"/>
  </g>
</svg>
