<svg xmlns="http://www.w3.org/2000/svg" viewBox="0 0 400 400" width="400" height="400">
  <defs>
    <linearGradient id="catFur" x1="0" y1="0" x2="0" y2="1">
      <stop offset="0%" stop-color="#f3b27a"/>
      <stop offset="100%" stop-color="#d68646"/>
    </linearGradient>
    <filter id="catShadow" x="-20%" y="-20%" width="140%" height="140%">
      <feDropShadow dx="0" dy="6" stdDeviation="6" flood-color="#000" flood-opacity="0.18"/>
    </filter>
  </defs>
  <g filter="url(#catShadow)">
    <path d="M90 160 L130 75 L195 145 Q200 145 205 145 L270 75 L310 160
             A140 130 0 1 1 90 160 Z"
          fill="url(#catFur)" stroke="#ffffff" stroke-width="14" stroke-linejoin="round"/>
    <path d="M120 110 L140 100 L160 130 Z" fill="#ff8fa3"/>
    <path d="M280 110 L260 100 L240 130 Z" fill="#ff8fa3"/>
    <g fill="#2b2b2b">
      <ellipse cx="160" cy="215" rx="14" ry="22"/>
      <ellipse cx="240" cy="215" rx="14" ry="22"/>
    </g>
    <circle cx="164" cy="208" r="5" fill="#fff"/>
    <circle cx="244" cy="208" r="5" fill="#fff"/>
    <path d="M188 255 q12 14 24 0" stroke="#2b2b2b" stroke-width="6" fill="none" stroke-linecap="round"/>
    <path d="M200 250 q-8 22 -25 22" stroke="#2b2b2b" stroke-width="6" fill="none" stroke-linecap="round"/>
    <path d="M200 250 q8 22 25 22" stroke="#2b2b2b" stroke-width="6" fill="none" stroke-linecap="round"/>
    <path d="M195 245 l5 -5 l5 5 z" fill="#ff8fa3"/>
    <g stroke="#2b2b2b" stroke-width="4" stroke-linecap="round">
      <line x1="115" y1="240" x2="160" y2="245"/>
      <line x1="115" y1="260" x2="160" y2="258"/>
      <line x1="285" y1="240" x2="240" y2="245"/>
      <line x1="285" y1="260" x2="240" y2="258"/>
    </g>
    <circle cx="135" cy="275" r="14" fill="#ff8fa3" opacity="0.7"/>
    <circle cx="265" cy="275" r="14" fill="#ff8fa3" opacity="0.7"/>
  </g>
</svg>
