<svg xmlns="http://www.w3.org/2000/svg" viewBox="0 0 400 400" width="400" height="400">
  <defs>
    <linearGradient id="cloudFill" x1="0" y1="0" x2="0" y2="1">
      <stop offset="0%" stop-color="#ffffff"/>
      <stop offset="100%" stop-color="#dceafe"/>
    </linearGradient>
    <filter id="cshadow" x="-20%" y="-20%" width="140%" height="140%">
      <feDropShadow dx="0" dy="6" stdDeviation="6" flood-color="#000" flood-opacity="0.18"/>
    </filter>
  </defs>
  <g filter="url(#cshadow)">
    <path d="M90 240
             a55 55 0 0 1 20 -107
             a60 60 0 0 1 115 -22
             a55 55 0 0 1 90 35
             a45 45 0 0 1 -10 89
             Z"
          fill="url(#cloudFill)" stroke="#ffffff" stroke-width="14" stroke-linejoin="round"/>
    <g stroke-width="18" stroke-linecap="round" fill="none">
      <path d="M140 270 q60 70 120 0" stroke="#ff4d6d"/>
      <path d="M148 290 q52 60 104 0" stroke="#ff924c"/>
      <path d="M156 310 q44 50 88 0" stroke="#ffd23f"/>
      <path d="M164 330 q36 40 72 0" stroke="#3ddc97"/>
      <path d="M172 350 q28 30 56 0" stroke="#4cc9f0"/>
    </g>
    <circle cx="170" cy="170" r="10" fill="#2b2b2b"/>
    <circle cx="230" cy="170" r="10" fill="#2b2b2b"/>
    <circle cx="173" cy="167" r="3" fill="#fff"/>
    <circle cx="233" cy="167" r="3" fill="#fff"/>
    <path d="M175 210 q25 22 50 0" stroke="#2b2b2b" stroke-width="7" fill="none" stroke-linecap="round"/>
    <circle cx="140" cy="200" r="11" fill="#ffb3c1" opacity="0.85"/>
    <circle cx="260" cy="200" r="11" fill="#ffb3c1" opacity="0.85"/>
  </g>
</svg>
