<svg xmlns="http://www.w3.org/2000/svg" viewBox="0 0 400 400" width="400" height="400">
  <defs>
    <linearGradient id="mug" x1="0" y1="0" x2="0" y2="1">
      <stop offset="0%" stop-color="#ffd6e0"/>
      <stop offset="100%" stop-color="#ff8fa3"/>
    </linearGradient>
    <linearGradient id="brew" x1="0" y1="0" x2="0" y2="1">
      <stop offset="0%" stop-color="#7a4a2b"/>
      <stop offset="100%" stop-color="#4b2a14"/>
    </linearGradient>
    <filter id="kshadow" x="-20%" y="-20%" width="140%" height="140%">
      <feDropShadow dx="0" dy="6" stdDeviation="6" flood-color="#000" flood-opacity="0.18"/>
    </filter>
  </defs>
  <g filter="url(#kshadow)">
    <g stroke="#ffffff" stroke-width="10" fill="none" stroke-linecap="round">
      <path d="M170 90 q-20 -25 0 -50"/>
      <path d="M200 90 q-20 -25 0 -50"/>
      <path d="M230 90 q-20 -25 0 -50"/>
    </g>
    <path d="M80 130 L320 130 L300 320 Q300 360 260 360 L140 360 Q100 360 100 320 Z"
          fill="url(#mug)" stroke="#ffffff" stroke-width="14" stroke-linejoin="round"/>
    <path d="M315 175 Q380 180 380 235 Q380 290 315 295"
          fill="none" stroke="#ffffff" stroke-width="14" stroke-linejoin="round"/>
    <path d="M315 175 Q380 180 380 235 Q380 290 315 295" fill="none" stroke="#ff8fa3" stroke-width="22" stroke-linejoin="round" opacity="0.0"/>
    <path d="M310 185 Q365 195 365 235 Q365 280 310 285" fill="none" stroke="#ff8fa3" stroke-width="18" stroke-linecap="round"/>
    <path d="M95 145 L305 145 L290 175 L110 175 Z" fill="url(#brew)"/>
    <ellipse cx="200" cy="160" rx="100" ry="14" fill="#3a2010"/>
    <ellipse cx="200" cy="158" rx="95" ry="10" fill="#5a3320"/>
    <g fill="#2b2b2b">
      <circle cx="160" cy="240" r="9"/>
      <circle cx="240" cy="240" r="9"/>
    </g>
    <path d="M175 275 q25 22 50 0" stroke="#2b2b2b" stroke-width="6" fill="none" stroke-linecap="round"/>
    <circle cx="135" cy="270" r="12" fill="#ff4d6d" opacity="0.6"/>
    <circle cx="265" cy="270" r="12" fill="#ff4d6d" opacity="0.6"/>
  </g>
</svg>
