<svg xmlns="http://www.w3.org/2000/svg" viewBox="0 0 400 400" width="400" height="400">
  <defs>
    <radialGradient id="dough" cx="50%" cy="50%" r="60%">
      <stop offset="0%" stop-color="#f6c177"/>
      <stop offset="100%" stop-color="#c98a3b"/>
    </radialGradient>
    <filter id="dshadow" x="-20%" y="-20%" width="140%" height="140%">
      <feDropShadow dx="0" dy="6" stdDeviation="6" flood-color="#000" flood-opacity="0.18"/>
    </filter>
  </defs>
  <g filter="url(#dshadow)">
    <path d="M200 50 a150 150 0 1 0 0.1 0 Z M200 145 a55 55 0 1 1 -0.1 0 Z"
          fill="url(#dough)" stroke="#ffffff" stroke-width="14" stroke-linejoin="round" fill-rule="evenodd"/>
    <path d="M200 60
             C 280 60 340 120 340 200
             C 340 230 332 250 320 268
             C 305 245 275 230 245 235
             C 235 215 215 205 200 205
             C 185 205 170 215 162 232
             C 130 230 100 245 82 268
             C 70 248 62 228 62 200
             C 62 120 120 60 200 60 Z"
          fill="#ff9ec7"/>
    <g>
      <rect x="120" y="120" width="10" height="4" rx="2" fill="#ffd23f" transform="rotate(20 125 122)"/>
      <rect x="160" y="100" width="10" height="4" rx="2" fill="#4cc9f0" transform="rotate(-15 165 102)"/>
      <rect x="220" y="95" width="10" height="4" rx="2" fill="#3ddc97" transform="rotate(40 225 97)"/>
      <rect x="270" y="120" width="10" height="4" rx="2" fill="#ff4d6d" transform="rotate(-30 275 122)"/>
      <rect x="100" y="170" width="10" height="4" rx="2" fill="#a06cd5" transform="rotate(60 105 172)"/>
      <rect x="285" y="170" width="10" height="4" rx="2" fill="#ffd23f" transform="rotate(10 290 172)"/>
      <rect x="140" y="190" width="10" height="4" rx="2" fill="#3ddc97" transform="rotate(-40 145 192)"/>
      <rect x="250" y="195" width="10" height="4" rx="2" fill="#4cc9f0" transform="rotate(25 255 197)"/>
      <rect x="180" y="135" width="10" height="4" rx="2" fill="#ff4d6d" transform="rotate(80 185 137)"/>
      <rect x="115" y="240" width="10" height="4" rx="2" fill="#a06cd5" transform="rotate(-20 120 242)"/>
      <rect x="280" y="240" width="10" height="4" rx="2" fill="#3ddc97" transform="rotate(30 285 242)"/>
      <rect x="160" y="260" width="10" height="4" rx="2" fill="#ffd23f" transform="rotate(70 165 262)"/>
      <rect x="240" y="265" width="10" height="4" rx="2" fill="#ff4d6d" transform="rotate(-50 245 267)"/>
    </g>
    <g fill="#2b2b2b">
      <circle cx="155" cy="290" r="9"/>
      <circle cx="245" cy="290" r="9"/>
    </g>
    <path d="M180 310 q20 18 40 0" stroke="#2b2b2b" stroke-width="6" fill="none" stroke-linecap="round"/>
    <circle cx="125" cy="310" r="11" fill="#ff8fa3" opacity="0.75"/>
    <circle cx="275" cy="310" r="11" fill="#ff8fa3" opacity="0.75"/>
  </g>
</svg>
