<svg xmlns="http://www.w3.org/2000/svg" viewBox="0 0 400 400" width="400" height="400">
  <defs>
    <linearGradient id="ghostFill" x1="0" y1="0" x2="0" y2="1">
      <stop offset="0%" stop-color="#ffffff"/>
      <stop offset="100%" stop-color="#e0e7ff"/>
    </linearGradient>
    <filter id="gshadow" x="-20%" y="-20%" width="140%" height="140%">
      <feDropShadow dx="0" dy="6" stdDeviation="6" flood-color="#000" flood-opacity="0.18"/>
    </filter>
  </defs>
  <g filter="url(#gshadow)">
    <path d="M90 200
             a110 130 0 0 1 220 0
             L310 350
             L275 320
             L240 350
             L205 320
             L170 350
             L135 320
             L100 350
             Z"
          fill="url(#ghostFill)" stroke="#ffffff" stroke-width="14" stroke-linejoin="round"/>
    <g fill="#2b2b2b">
      <ellipse cx="165" cy="200" rx="13" ry="20"/>
      <ellipse cx="235" cy="200" rx="13" ry="20"/>
    </g>
    <circle cx="168" cy="195" r="4" fill="#fff"/>
    <circle cx="238" cy="195" r="4" fill="#fff"/>
    <ellipse cx="200" cy="255" rx="22" ry="18" fill="#2b2b2b"/>
    <ellipse cx="200" cy="248" rx="14" ry="6" fill="#ff8fa3"/>
    <circle cx="130" cy="240" r="14" fill="#ff8fa3" opacity="0.7"/>
    <circle cx="270" cy="240" r="14" fill="#ff8fa3" opacity="0.7"/>
  </g>
</svg>
