<svg xmlns="http://www.w3.org/2000/svg" viewBox="0 0 400 400" width="400" height="400">
  <defs>
    <linearGradient id="heartFill" x1="0" y1="0" x2="0" y2="1">
      <stop offset="0%" stop-color="#ff8fa3"/>
      <stop offset="100%" stop-color="#e63946"/>
    </linearGradient>
    <filter id="hshadow" x="-20%" y="-20%" width="140%" height="140%">
      <feDropShadow dx="0" dy="6" stdDeviation="6" flood-color="#000" flood-opacity="0.18"/>
    </filter>
  </defs>
  <g filter="url(#hshadow)">
    <path d="M200 350
             C 60 250 50 140 130 100
             C 175 78 200 110 200 140
             C 200 110 225 78 270 100
             C 350 140 340 250 200 350 Z"
          fill="url(#heartFill)" stroke="#ffffff" stroke-width="16" stroke-linejoin="round"/>
    <path d="M150 140 q15 -25 40 -15" stroke="#ffffff" stroke-width="10" stroke-linecap="round" fill="none" opacity="0.65"/>
    <g fill="#ffffff">
      <circle cx="160" cy="190" r="14"/>
      <circle cx="240" cy="190" r="14"/>
    </g>
    <g fill="#2b2b2b">
      <circle cx="160" cy="190" r="6"/>
      <circle cx="240" cy="190" r="6"/>
    </g>
    <path d="M170 230 q30 28 60 0" stroke="#2b2b2b" stroke-width="7" fill="none" stroke-linecap="round"/>
    <circle cx="130" cy="230" r="13" fill="#ffd23f" opacity="0.8"/>
    <circle cx="270" cy="230" r="13" fill="#ffd23f" opacity="0.8"/>
  </g>
</svg>
