<svg xmlns="http://www.w3.org/2000/svg" viewBox="0 0 400 400" width="400" height="400">
  <defs>
    <linearGradient id="crust" x1="0" y1="0" x2="0" y2="1">
      <stop offset="0%" stop-color="#f6c177"/>
      <stop offset="100%" stop-color="#c98a3b"/>
    </linearGradient>
    <linearGradient id="cheese" x1="0" y1="0" x2="0" y2="1">
      <stop offset="0%" stop-color="#ffe28a"/>
      <stop offset="100%" stop-color="#ffb84d"/>
    </linearGradient>
    <filter id="pshadow" x="-20%" y="-20%" width="140%" height="140%">
      <feDropShadow dx="0" dy="6" stdDeviation="6" flood-color="#000" flood-opacity="0.18"/>
    </filter>
  </defs>
  <g filter="url(#pshadow)">
    <path d="M200 50 L350 330 Q200 380 50 330 Z"
          fill="url(#crust)" stroke="#ffffff" stroke-width="14" stroke-linejoin="round"/>
    <path d="M200 95 L320 320 Q200 360 80 320 Z" fill="url(#cheese)"/>
    <circle cx="160" cy="180" r="22" fill="#e63946" stroke="#a4161a" stroke-width="3"/>
    <circle cx="245" cy="200" r="22" fill="#e63946" stroke="#a4161a" stroke-width="3"/>
    <circle cx="200" cy="270" r="22" fill="#e63946" stroke="#a4161a" stroke-width="3"/>
    <circle cx="130" cy="270" r="14" fill="#3b6e1c"/>
    <circle cx="280" cy="265" r="14" fill="#3b6e1c"/>
    <circle cx="200" cy="155" r="9" fill="#3b6e1c"/>
    <g fill="#2b2b2b">
      <circle cx="180" cy="230" r="7"/>
      <circle cx="225" cy="230" r="7"/>
    </g>
    <path d="M180 255 q22 18 44 0" stroke="#2b2b2b" stroke-width="6" fill="none" stroke-linecap="round"/>
    <circle cx="155" cy="255" r="8" fill="#ff6b8a" opacity="0.7"/>
    <circle cx="250" cy="255" r="8" fill="#ff6b8a" opacity="0.7"/>
  </g>
</svg>
