<svg xmlns="http://www.w3.org/2000/svg" viewBox="0 0 400 400" width="400" height="400">
  <defs>
    <linearGradient id="rocketBody" x1="0" y1="0" x2="0" y2="1">
      <stop offset="0%" stop-color="#ffffff"/>
      <stop offset="100%" stop-color="#cdd5df"/>
    </linearGradient>
    <linearGradient id="flame" x1="0" y1="0" x2="0" y2="1">
      <stop offset="0%" stop-color="#ffd23f"/>
      <stop offset="60%" stop-color="#ff7b00"/>
      <stop offset="100%" stop-color="#ff2e63"/>
    </linearGradient>
    <filter id="rshadow" x="-20%" y="-20%" width="140%" height="140%">
      <feDropShadow dx="0" dy="6" stdDeviation="6" flood-color="#000" flood-opacity="0.18"/>
    </filter>
  </defs>
  <g filter="url(#rshadow)">
    <path d="M200 360 Q170 320 165 290 Q140 295 120 320 Q130 270 165 250
             L165 170 Q165 70 200 40 Q235 70 235 170 L235 250
             Q270 270 280 320 Q260 295 235 290 Q230 320 200 360 Z"
          fill="url(#rocketBody)" stroke="#ffffff" stroke-width="14" stroke-linejoin="round"/>
    <path d="M165 170 Q165 70 200 40 Q235 70 235 170 Z" fill="#ff4d6d"/>
    <circle cx="200" cy="160" r="32" fill="#9be7ff" stroke="#2b2b2b" stroke-width="6"/>
    <circle cx="190" cy="150" r="8" fill="#ffffff" opacity="0.8"/>
    <g>
      <path d="M178 330 Q200 365 222 330 Q232 360 215 380 Q200 392 185 380 Q168 360 178 330 Z" fill="url(#flame)"/>
    </g>
    <g fill="#ffffff">
      <circle cx="80" cy="90" r="4"/>
      <circle cx="320" cy="80" r="3"/>
      <circle cx="60" cy="200" r="3"/>
      <circle cx="340" cy="220" r="4"/>
      <circle cx="90" cy="300" r="3"/>
      <circle cx="340" cy="320" r="3"/>
    </g>
  </g>
</svg>
