<svg xmlns="http://www.w3.org/2000/svg" viewBox="0 0 400 400" width="400" height="400">
  <defs>
    <radialGradient id="starFill" cx="50%" cy="40%" r="60%">
      <stop offset="0%" stop-color="#fff8b0"/>
      <stop offset="60%" stop-color="#ffd23f"/>
      <stop offset="100%" stop-color="#ff9f1c"/>
    </radialGradient>
    <filter id="sshadow" x="-20%" y="-20%" width="140%" height="140%">
      <feDropShadow dx="0" dy="6" stdDeviation="6" flood-color="#000" flood-opacity="0.18"/>
    </filter>
  </defs>
  <g filter="url(#sshadow)">
    <path d="M200 40
             L243 145
             L355 155
             L270 230
             L295 345
             L200 285
             L105 345
             L130 230
             L45 155
             L157 145 Z"
          fill="url(#starFill)" stroke="#ffffff" stroke-width="14" stroke-linejoin="round"/>
    <g fill="#2b2b2b">
      <ellipse cx="170" cy="195" rx="10" ry="14"/>
      <ellipse cx="230" cy="195" rx="10" ry="14"/>
    </g>
    <circle cx="173" cy="190" r="3" fill="#fff"/>
    <circle cx="233" cy="190" r="3" fill="#fff"/>
    <path d="M170 230 q30 28 60 0" stroke="#2b2b2b" stroke-width="7" fill="none" stroke-linecap="round"/>
    <path d="M170 230 q30 28 60 0 q-30 22 -60 0 Z" fill="#ff4d6d"/>
    <circle cx="140" cy="225" r="11" fill="#ff8fa3" opacity="0.75"/>
    <circle cx="260" cy="225" r="11" fill="#ff8fa3" opacity="0.75"/>
    <g fill="#ffffff" opacity="0.85">
      <circle cx="155" cy="135" r="4"/>
      <circle cx="245" cy="135" r="4"/>
      <circle cx="200" cy="115" r="3"/>
    </g>
  </g>
</svg>
