<svg xmlns="http://www.w3.org/2000/svg" viewBox="0 0 400 400" width="400" height="400">
  <defs>
    <radialGradient id="sunBody" cx="50%" cy="45%" r="55%">
      <stop offset="0%" stop-color="#fff3a0"/>
      <stop offset="60%" stop-color="#ffd23f"/>
      <stop offset="100%" stop-color="#ff9f1c"/>
    </radialGradient>
    <filter id="shadow" x="-20%" y="-20%" width="140%" height="140%">
      <feDropShadow dx="0" dy="6" stdDeviation="6" flood-color="#000" flood-opacity="0.18"/>
    </filter>
  </defs>
  <g filter="url(#shadow)">
    <g stroke="#ffffff" stroke-width="14" stroke-linejoin="round" stroke-linecap="round" fill="url(#sunBody)">
      <path d="M200 40 L215 80 L245 55 L240 95 L285 90 L260 125 L300 145 L255 160 L280 200 L235 195 L240 240 L205 215 L200 260 L195 215 L160 240 L165 195 L120 200 L145 160 L100 145 L140 125 L115 90 L160 95 L155 55 L185 80 Z"/>
    </g>
    <circle cx="200" cy="200" r="95" fill="url(#sunBody)" stroke="#ffffff" stroke-width="10"/>
    <g fill="#2b2b2b">
      <path d="M135 175 q35 -45 75 0 l-15 12 q-22 -28 -45 0 z"/>
      <path d="M225 175 q35 -45 75 0 l-15 12 q-22 -28 -45 0 z"/>
    </g>
    <path d="M165 235 q35 35 70 0" fill="none" stroke="#2b2b2b" stroke-width="9" stroke-linecap="round"/>
    <circle cx="150" cy="245" r="12" fill="#ff6b8a" opacity="0.7"/>
    <circle cx="250" cy="245" r="12" fill="#ff6b8a" opacity="0.7"/>
  </g>
</svg>
